<svg width="243.008" height="37.207" viewBox="0 0 243.008 37.207" xmlns="http://www.w3.org/2000/svg"><g id="svgGroup" stroke-linecap="round" fill-rule="evenodd" font-size="9pt" stroke="#000000" stroke-width="0" fill="#ffffff" style="stroke:#000000;stroke-width:0;fill:#ffffff"><path d="M 130.606 15.957 L 130.606 29.238 L 125.293 29.238 L 125.293 15.957 A 2.646 2.646 0 0 0 125.088 14.922 Q 124.883 14.434 124.512 14.063 Q 124.141 13.691 123.653 13.486 Q 123.164 13.281 122.617 13.281 A 2.575 2.575 0 0 0 121.592 13.486 A 2.578 2.578 0 0 0 120.752 14.062 Q 120.391 14.434 120.186 14.922 Q 119.981 15.41 119.981 15.957 L 119.981 29.238 L 114.649 29.238 L 114.649 15.957 A 2.646 2.646 0 0 0 114.444 14.922 Q 114.238 14.434 113.867 14.063 Q 113.496 13.691 113.008 13.486 Q 112.52 13.281 111.973 13.281 A 2.575 2.575 0 0 0 110.947 13.486 A 2.578 2.578 0 0 0 110.108 14.062 Q 109.746 14.434 109.541 14.922 Q 109.336 15.41 109.336 15.957 L 109.336 29.238 L 104.004 29.238 L 104.004 8.32 L 105.293 8.32 L 106.738 9.922 A 8.599 8.599 0 0 1 109.19 8.467 A 7.648 7.648 0 0 1 111.973 7.949 Q 113.438 7.949 114.834 8.496 A 5.464 5.464 0 0 1 116.665 9.696 A 6.961 6.961 0 0 1 117.285 10.391 Q 117.774 9.727 118.399 9.258 A 6.241 6.241 0 0 1 119.717 8.496 A 6.486 6.486 0 0 1 121.153 8.076 A 8.677 8.677 0 0 1 122.617 7.949 Q 124.278 7.949 125.733 8.574 A 8.039 8.039 0 0 1 128.272 10.283 A 8.009 8.009 0 0 1 129.981 12.832 Q 130.606 14.297 130.606 15.957 Z M 8.399 1.23 L 21.25 1.23 L 21.25 6.836 L 8.399 6.836 A 2.817 2.817 0 0 0 7.474 6.986 A 2.655 2.655 0 0 0 7.305 7.051 A 2.77 2.77 0 0 0 6.416 7.646 A 2.77 2.77 0 0 0 5.82 8.535 Q 5.606 9.043 5.606 9.629 A 2.849 2.849 0 0 0 5.82 10.732 Q 6.035 11.25 6.416 11.631 A 2.77 2.77 0 0 0 7.305 12.227 Q 7.813 12.441 8.399 12.441 L 14.004 12.441 A 8.247 8.247 0 0 1 17.276 13.096 Q 18.809 13.75 19.951 14.893 Q 21.094 16.035 21.748 17.568 A 8.247 8.247 0 0 1 22.403 20.84 Q 22.403 22.578 21.748 24.102 Q 21.094 25.625 19.951 26.768 Q 18.809 27.91 17.276 28.574 A 8.142 8.142 0 0 1 14.004 29.238 L 1.563 29.238 L 1.563 23.633 L 14.004 23.633 A 2.817 2.817 0 0 0 14.929 23.483 A 2.655 2.655 0 0 0 15.098 23.418 A 2.77 2.77 0 0 0 15.987 22.822 A 2.77 2.77 0 0 0 16.582 21.934 Q 16.797 21.426 16.797 20.84 A 2.817 2.817 0 0 0 16.647 19.915 A 2.655 2.655 0 0 0 16.582 19.746 A 2.77 2.77 0 0 0 15.987 18.857 A 2.77 2.77 0 0 0 15.098 18.262 Q 14.59 18.047 14.004 18.047 L 8.399 18.047 A 8.073 8.073 0 0 1 5.137 17.383 Q 3.613 16.719 2.471 15.576 Q 1.328 14.434 0.664 12.9 A 8.142 8.142 0 0 1 0 9.629 A 8.073 8.073 0 0 1 0.664 6.367 Q 1.328 4.844 2.471 3.701 Q 3.613 2.559 5.137 1.895 A 8.073 8.073 0 0 1 8.399 1.23 Z M 145.977 29.238 L 133.789 29.238 L 133.789 23.926 L 145.977 23.926 A 1.277 1.277 0 0 0 146.902 23.547 A 1.566 1.566 0 0 0 146.914 23.535 A 1.277 1.277 0 0 0 147.305 22.615 A 1.517 1.517 0 0 0 147.305 22.598 Q 147.305 22.261 147.167 22.063 A 0.601 0.601 0 0 0 146.914 21.855 A 1.894 1.894 0 0 0 146.485 21.724 Q 146.25 21.68 145.977 21.68 L 140.43 21.68 Q 139.043 21.68 137.832 21.152 A 6.695 6.695 0 0 1 135.723 19.717 A 6.759 6.759 0 0 1 134.307 17.598 A 6.539 6.539 0 0 1 133.789 15.003 A 9.166 9.166 0 0 1 133.789 15 A 6.542 6.542 0 0 1 134.299 12.421 A 6.385 6.385 0 0 1 134.307 12.402 Q 134.824 11.191 135.723 10.293 A 6.642 6.642 0 0 1 137.832 8.877 Q 139.043 8.359 140.43 8.359 L 151.231 8.359 L 151.231 13.672 L 140.43 13.672 A 1.277 1.277 0 0 0 139.505 14.05 A 1.566 1.566 0 0 0 139.492 14.062 A 1.277 1.277 0 0 0 139.102 14.983 A 1.517 1.517 0 0 0 139.102 15 Q 139.102 15.566 139.492 15.967 A 1.314 1.314 0 0 0 139.966 16.285 A 1.291 1.291 0 0 0 140.43 16.367 L 145.977 16.367 A 7.244 7.244 0 0 1 148.403 16.771 A 6.915 6.915 0 0 1 148.555 16.826 A 6.613 6.613 0 0 1 150.361 17.846 A 6.194 6.194 0 0 1 150.664 18.105 A 6.042 6.042 0 0 1 152.09 20.078 Q 152.617 21.23 152.617 22.598 A 6.416 6.416 0 0 1 152.199 24.921 A 6.148 6.148 0 0 1 152.09 25.186 A 6.933 6.933 0 0 1 150.664 27.295 A 6.562 6.562 0 0 1 148.555 28.721 A 6.49 6.49 0 0 1 145.977 29.238 Z M 39.688 29.238 L 35.645 29.238 A 9.079 9.079 0 0 1 32.012 28.506 A 9.471 9.471 0 0 1 29.033 26.494 Q 27.754 25.215 27.022 23.516 A 9.079 9.079 0 0 1 26.289 19.883 L 26.289 13.672 L 23.692 13.672 L 23.692 8.359 L 26.289 8.359 L 26.289 0 L 31.602 0 L 31.602 8.359 L 39.688 8.359 L 39.688 13.672 L 31.602 13.672 L 31.602 19.883 A 3.98 3.98 0 0 0 31.876 21.363 A 3.839 3.839 0 0 0 31.914 21.455 Q 32.227 22.188 32.774 22.734 A 4.127 4.127 0 0 0 34.063 23.604 Q 34.805 23.926 35.645 23.926 L 39.688 23.926 L 39.688 29.238 Z M 205.703 27.832 L 205.703 37.207 L 200.332 37.207 L 200.332 8.32 L 201.621 8.32 L 203.75 10.84 A 14.15 14.15 0 0 1 205.279 9.589 A 15.463 15.463 0 0 1 205.332 9.551 A 12.072 12.072 0 0 1 207.119 8.506 Q 208.047 8.066 209.043 7.813 Q 210.039 7.559 211.055 7.559 A 10.902 10.902 0 0 1 215.205 8.35 Q 217.149 9.141 218.604 10.586 A 10.312 10.312 0 0 1 220.708 13.633 A 11.967 11.967 0 0 1 220.899 14.072 A 11.194 11.194 0 0 1 221.672 17.233 A 13.639 13.639 0 0 1 221.738 18.594 A 13.621 13.621 0 0 1 221.501 21.187 A 10.895 10.895 0 0 1 220.899 23.232 Q 220.059 25.293 218.604 26.729 Q 217.149 28.164 215.205 28.926 Q 213.262 29.688 211.055 29.688 Q 210.352 29.688 209.658 29.531 A 9.447 9.447 0 0 1 208.291 29.111 A 15.064 15.064 0 0 1 206.963 28.516 A 25.392 25.392 0 0 1 205.703 27.832 Z M 173.731 12.48 L 169.824 16.406 A 5.285 5.285 0 0 0 169.024 14.932 A 5.441 5.441 0 0 0 168.038 13.944 A 5.045 5.045 0 0 0 167.881 13.828 A 4.949 4.949 0 0 0 166.504 13.145 Q 165.762 12.91 164.981 12.91 A 4.831 4.831 0 0 0 162.92 13.359 A 5.049 5.049 0 0 0 161.24 14.619 A 5.86 5.86 0 0 0 160.296 16.103 A 6.927 6.927 0 0 0 160.117 16.543 A 6.656 6.656 0 0 0 159.747 18.185 A 8.187 8.187 0 0 0 159.707 19.004 Q 159.707 20.098 160.117 21.055 A 5.392 5.392 0 0 0 161.24 22.734 A 5.167 5.167 0 0 0 162.92 23.867 A 5.221 5.221 0 0 0 164.981 24.277 A 5.249 5.249 0 0 0 166.485 24.062 A 5.436 5.436 0 0 0 167.842 23.447 Q 168.477 23.047 168.975 22.471 Q 169.473 21.895 169.785 21.191 L 173.692 25.117 A 10.515 10.515 0 0 1 171.983 27.012 A 10.783 10.783 0 0 1 169.893 28.437 A 10.444 10.444 0 0 1 167.529 29.326 Q 166.289 29.629 164.981 29.629 A 10.454 10.454 0 0 1 160.83 28.799 A 10.78 10.78 0 0 1 157.432 26.523 A 10.747 10.747 0 0 1 155.137 23.145 Q 154.297 21.211 154.297 19.004 A 12.143 12.143 0 0 1 154.851 15.306 A 11.321 11.321 0 0 1 155.137 14.512 A 11.667 11.667 0 0 1 157.164 11.165 A 11.081 11.081 0 0 1 157.432 10.869 A 10.856 10.856 0 0 1 160.83 8.418 A 9.771 9.771 0 0 1 164.981 7.52 Q 166.289 7.52 167.549 7.852 A 10.37 10.37 0 0 1 169.951 8.818 Q 171.094 9.453 172.061 10.371 A 9.66 9.66 0 0 1 173.731 12.48 Z M 77.168 12.07 L 67.168 24.121 A 3.044 3.044 0 0 0 67.793 24.248 A 6.692 6.692 0 0 0 68.418 24.277 A 5.249 5.249 0 0 0 69.922 24.062 A 5.436 5.436 0 0 0 71.279 23.447 Q 71.914 23.047 72.412 22.471 Q 72.91 21.895 73.223 21.191 L 77.129 25.117 A 10.515 10.515 0 0 1 75.42 27.012 A 10.783 10.783 0 0 1 73.33 28.437 A 10.444 10.444 0 0 1 70.967 29.326 Q 69.727 29.629 68.418 29.629 Q 66.211 29.629 64.268 28.809 A 10.488 10.488 0 0 1 60.869 26.523 A 10.679 10.679 0 0 1 58.641 23.194 A 12.17 12.17 0 0 1 58.574 23.037 Q 57.735 21.016 57.735 18.594 A 12.75 12.75 0 0 1 58.031 15.8 A 10.814 10.814 0 0 1 58.574 14.062 A 10.786 10.786 0 0 1 60.1 11.427 A 9.786 9.786 0 0 1 60.869 10.566 A 10.383 10.383 0 0 1 64.268 8.32 A 10.786 10.786 0 0 1 68.418 7.52 Q 69.727 7.52 70.977 7.832 Q 72.227 8.145 73.35 8.73 Q 74.473 9.316 75.449 10.166 A 10.605 10.605 0 0 1 77.168 12.07 Z M 243.008 12.07 L 233.008 24.121 A 3.044 3.044 0 0 0 233.633 24.248 A 6.692 6.692 0 0 0 234.258 24.277 A 5.249 5.249 0 0 0 235.762 24.062 A 5.436 5.436 0 0 0 237.119 23.447 Q 237.754 23.047 238.252 22.471 Q 238.75 21.895 239.063 21.191 L 242.969 25.117 A 10.515 10.515 0 0 1 241.26 27.012 A 10.783 10.783 0 0 1 239.17 28.437 A 10.444 10.444 0 0 1 236.807 29.326 Q 235.567 29.629 234.258 29.629 Q 232.051 29.629 230.108 28.809 A 10.488 10.488 0 0 1 226.709 26.523 A 10.679 10.679 0 0 1 224.481 23.194 A 12.17 12.17 0 0 1 224.414 23.037 Q 223.574 21.016 223.574 18.594 A 12.75 12.75 0 0 1 223.87 15.8 A 10.814 10.814 0 0 1 224.414 14.062 A 10.786 10.786 0 0 1 225.939 11.427 A 9.786 9.786 0 0 1 226.709 10.566 A 10.383 10.383 0 0 1 230.108 8.32 A 10.786 10.786 0 0 1 234.258 7.52 Q 235.567 7.52 236.817 7.832 Q 238.067 8.145 239.19 8.73 Q 240.313 9.316 241.289 10.166 A 10.605 10.605 0 0 1 243.008 12.07 Z M 99.942 8.359 L 99.942 29.238 L 98.653 29.238 L 96.582 26.367 A 17.155 17.155 0 0 1 94.971 27.646 A 11.919 11.919 0 0 1 93.184 28.682 A 10.965 10.965 0 0 1 91.26 29.375 Q 90.274 29.629 89.258 29.629 A 11.651 11.651 0 0 1 85.598 29.061 A 10.984 10.984 0 0 1 85.108 28.887 A 9.86 9.86 0 0 1 81.709 26.729 A 9.868 9.868 0 0 1 79.721 23.948 A 11.655 11.655 0 0 1 79.414 23.262 A 11.092 11.092 0 0 1 78.703 20.552 A 14.433 14.433 0 0 1 78.574 18.594 A 12.394 12.394 0 0 1 78.902 15.698 A 10.737 10.737 0 0 1 79.414 14.111 A 10.905 10.905 0 0 1 81.102 11.274 A 10.115 10.115 0 0 1 81.709 10.605 Q 83.164 9.141 85.108 8.33 A 10.672 10.672 0 0 1 89.258 7.52 Q 90.274 7.52 91.27 7.773 Q 92.266 8.027 93.203 8.477 A 12.035 12.035 0 0 1 94.99 9.531 Q 95.84 10.137 96.582 10.84 L 98.653 8.359 L 99.942 8.359 Z M 196.27 8.359 L 196.27 29.238 L 194.981 29.238 L 192.91 26.367 A 17.155 17.155 0 0 1 191.299 27.646 A 11.919 11.919 0 0 1 189.512 28.682 A 10.965 10.965 0 0 1 187.588 29.375 Q 186.602 29.629 185.586 29.629 A 11.651 11.651 0 0 1 181.926 29.061 A 10.984 10.984 0 0 1 181.436 28.887 A 9.86 9.86 0 0 1 178.037 26.729 A 9.868 9.868 0 0 1 176.049 23.948 A 11.655 11.655 0 0 1 175.742 23.262 A 11.092 11.092 0 0 1 175.031 20.552 A 14.433 14.433 0 0 1 174.903 18.594 A 12.394 12.394 0 0 1 175.231 15.698 A 10.737 10.737 0 0 1 175.742 14.111 A 10.905 10.905 0 0 1 177.43 11.274 A 10.115 10.115 0 0 1 178.037 10.605 Q 179.492 9.141 181.436 8.33 A 10.672 10.672 0 0 1 185.586 7.52 Q 186.602 7.52 187.598 7.773 Q 188.594 8.027 189.531 8.477 A 12.035 12.035 0 0 1 191.319 9.531 Q 192.168 10.137 192.91 10.84 L 194.981 8.359 L 196.27 8.359 Z M 48.008 17.715 L 48.008 29.238 L 42.676 29.238 L 42.676 8.32 L 43.965 8.32 L 45.723 10.801 A 9.311 9.311 0 0 1 48.653 8.994 Q 50.293 8.359 52.051 8.359 L 56.758 8.359 L 56.758 13.672 L 52.051 13.672 Q 51.211 13.672 50.469 13.984 Q 49.727 14.297 49.18 14.844 A 3.994 3.994 0 0 0 48.32 16.133 Q 48.008 16.875 48.008 17.715 Z M 216.387 18.594 A 7.208 7.208 0 0 0 216.272 17.278 A 5.677 5.677 0 0 0 215.967 16.211 Q 215.547 15.156 214.824 14.424 A 4.932 4.932 0 0 0 213.125 13.301 Q 212.149 12.91 211.055 12.91 Q 209.961 12.91 208.994 13.301 A 4.954 4.954 0 0 0 207.305 14.424 A 5.121 5.121 0 0 0 206.36 15.765 A 6.11 6.11 0 0 0 206.162 16.211 A 5.855 5.855 0 0 0 205.801 17.636 A 7.513 7.513 0 0 0 205.742 18.594 A 6.678 6.678 0 0 0 205.898 20.061 A 5.678 5.678 0 0 0 206.162 20.918 A 5.683 5.683 0 0 0 206.844 22.168 A 5.011 5.011 0 0 0 207.305 22.715 A 5.128 5.128 0 0 0 208.994 23.867 A 5.221 5.221 0 0 0 211.055 24.277 A 5.292 5.292 0 0 0 213.125 23.867 A 5.102 5.102 0 0 0 214.824 22.715 Q 215.547 21.973 215.967 20.918 A 5.958 5.958 0 0 0 216.359 19.234 A 7.208 7.208 0 0 0 216.387 18.594 Z M 94.57 18.594 A 5.541 5.541 0 0 0 94.151 16.475 A 6.09 6.09 0 0 0 93.008 14.658 A 5.681 5.681 0 0 0 91.319 13.389 A 4.583 4.583 0 0 0 89.258 12.91 A 5.726 5.726 0 0 0 87.319 13.236 A 5.466 5.466 0 0 0 87.197 13.281 A 4.692 4.692 0 0 0 85.518 14.375 A 4.892 4.892 0 0 0 84.634 15.621 A 5.984 5.984 0 0 0 84.395 16.162 A 6.001 6.001 0 0 0 84.058 17.494 A 7.954 7.954 0 0 0 83.985 18.594 A 7.783 7.783 0 0 0 84.084 19.866 A 5.897 5.897 0 0 0 84.395 21.025 A 5.551 5.551 0 0 0 84.979 22.155 A 4.678 4.678 0 0 0 85.518 22.813 Q 86.231 23.535 87.197 23.906 Q 88.164 24.277 89.258 24.277 A 4.583 4.583 0 0 0 91.319 23.799 A 5.681 5.681 0 0 0 93.008 22.529 A 6.09 6.09 0 0 0 94.151 20.713 A 5.541 5.541 0 0 0 94.57 18.594 Z M 190.899 18.594 A 5.541 5.541 0 0 0 190.479 16.475 A 6.09 6.09 0 0 0 189.336 14.658 A 5.681 5.681 0 0 0 187.647 13.389 A 4.583 4.583 0 0 0 185.586 12.91 A 5.726 5.726 0 0 0 183.647 13.236 A 5.466 5.466 0 0 0 183.526 13.281 A 4.692 4.692 0 0 0 181.846 14.375 A 4.892 4.892 0 0 0 180.962 15.621 A 5.984 5.984 0 0 0 180.723 16.162 A 6.001 6.001 0 0 0 180.386 17.494 A 7.954 7.954 0 0 0 180.313 18.594 A 7.783 7.783 0 0 0 180.412 19.866 A 5.897 5.897 0 0 0 180.723 21.025 A 5.551 5.551 0 0 0 181.307 22.155 A 4.678 4.678 0 0 0 181.846 22.813 Q 182.559 23.535 183.526 23.906 Q 184.492 24.277 185.586 24.277 A 4.583 4.583 0 0 0 187.647 23.799 A 5.681 5.681 0 0 0 189.336 22.529 A 6.09 6.09 0 0 0 190.479 20.713 A 5.541 5.541 0 0 0 190.899 18.594 Z M 63.692 21.367 L 69.903 13.125 A 3.17 3.17 0 0 0 69.351 12.975 A 2.814 2.814 0 0 0 69.17 12.949 A 6.891 6.891 0 0 0 68.527 12.911 A 7.691 7.691 0 0 0 68.418 12.91 Q 67.324 12.91 66.358 13.311 A 4.903 4.903 0 0 0 64.678 14.453 A 5.257 5.257 0 0 0 63.705 15.89 A 6.183 6.183 0 0 0 63.555 16.24 Q 63.145 17.285 63.145 18.594 A 7.028 7.028 0 0 0 63.151 18.886 Q 63.158 19.061 63.174 19.258 A 7.674 7.674 0 0 0 63.272 20.01 A 8.093 8.093 0 0 0 63.426 20.698 A 7.403 7.403 0 0 0 63.438 20.742 A 3.008 3.008 0 0 0 63.566 21.113 A 2.411 2.411 0 0 0 63.692 21.367 Z M 229.531 21.367 L 235.742 13.125 A 3.17 3.17 0 0 0 235.191 12.975 A 2.814 2.814 0 0 0 235.01 12.949 A 6.891 6.891 0 0 0 234.367 12.911 A 7.691 7.691 0 0 0 234.258 12.91 Q 233.164 12.91 232.197 13.311 A 4.903 4.903 0 0 0 230.518 14.453 A 5.257 5.257 0 0 0 229.545 15.89 A 6.183 6.183 0 0 0 229.395 16.24 Q 228.985 17.285 228.985 18.594 A 7.028 7.028 0 0 0 228.991 18.886 Q 228.998 19.061 229.014 19.258 A 7.674 7.674 0 0 0 229.112 20.01 A 8.093 8.093 0 0 0 229.265 20.698 A 7.403 7.403 0 0 0 229.278 20.742 A 3.008 3.008 0 0 0 229.406 21.113 A 2.411 2.411 0 0 0 229.531 21.367 Z" vector-effect="non-scaling-stroke"/></g></svg>